# xmcd CD database file
#
# Track frame offsets:
#	150
#	14994
#	33287
#	51266
#	67399
#	83541
#	103291
#	120205
#	136463
#
# Disc length: 2077 seconds
#
# Revision: 0
# Processed by: cddbd v1.5.2PL0 Copyright (c) Steve Scherf et al.
# Submitted via: CDex 1.79
#
DISCID=7e081b09
DTITLE=Era - The 7 Sword
DYEAR=2017
DGENRE=New Age
TTITLE0=Hurricane
TTITLE1=7 Seconds
TTITLE2=Kilimandiaro (Brean Levi Remix)
TTITLE3=Ameno (The City Remix)
TTITLE4=I Fall For You
TTITLE5=Something Exciting
TTITLE6=Agnus Deorem
TTITLE7=Nomen Adore
TTITLE8=I Believe ft Racha Rizk
EXTD=YEAR: 2017
EXTT0=
EXTT1=
EXTT2=
EXTT3=
EXTT4=
EXTT5=
EXTT6=
EXTT7=
EXTT8=
PLAYORDER=
